<svg width="48" height="49" viewBox="0 0 48 49" fill="none" xmlns="http://www.w3.org/2000/svg">
<rect y="0.5" width="48" height="48" rx="8" fill="#F0C243"/>
<rect y="0.5" width="48" height="48" rx="8" fill="url(#paint0_radial_472_3436)" fill-opacity="0.6"/>
<path d="M20.744 34.1301V31.1661H25.502C26.3687 31.1661 27.0274 30.9321 27.478 30.4641C27.9287 29.9788 28.154 29.3201 28.154 28.4881C28.154 27.6561 27.9287 27.0148 27.478 26.5641C27.0274 26.0961 26.3687 25.8621 25.502 25.8621H20.744V23.6001H25.242C26.5074 23.6001 27.634 23.7561 28.622 24.0681C29.6274 24.3628 30.4074 24.8655 30.962 25.5761C31.534 26.2868 31.82 27.2401 31.82 28.4361V28.8001C31.82 29.9268 31.5687 30.8888 31.066 31.6861C30.5807 32.4661 29.844 33.0728 28.856 33.5061C27.8854 33.9221 26.6807 34.1301 25.242 34.1301H20.744ZM17.65 34.1301V14.8901H21.264V34.1301H17.65ZM20.744 25.2641V23.0021H24.8C25.684 23.0021 26.334 22.7681 26.75 22.3001C27.166 21.8321 27.374 21.2081 27.374 20.4281C27.374 19.6481 27.166 19.0241 26.75 18.5561C26.334 18.0881 25.684 17.8541 24.8 17.8541H20.744V14.8901H24.462C26.6114 14.8901 28.2407 15.3408 29.35 16.2421C30.4767 17.1435 31.04 18.4348 31.04 20.1161V20.4801C31.04 21.6588 30.754 22.6035 30.182 23.3141C29.6274 24.0075 28.856 24.5101 27.868 24.8221C26.88 25.1168 25.7447 25.2641 24.462 25.2641H20.744Z" fill="white"/>
<path d="M22.2604 12H25.2604V16H22.2604V12Z" fill="white"/>
<path d="M22.2604 33H25.2604V37H22.2604V33Z" fill="white"/>
<defs>
<radialGradient id="paint0_radial_472_3436" cx="0" cy="0" r="1" gradientUnits="userSpaceOnUse" gradientTransform="translate(24 24.5) rotate(90) scale(28.5)">
<stop stop-color="#BD8F0F"/>
<stop offset="1" stop-color="#BD8F0F" stop-opacity="0"/>
</radialGradient>
</defs>
</svg>
