<svg width="24" height="24" viewBox="0 0 24 24" fill="none" xmlns="http://www.w3.org/2000/svg">
<mask id="mask0_339_858" style="mask-type:alpha" maskUnits="userSpaceOnUse" x="0" y="0" width="24" height="24">
<rect width="24" height="24" fill="#D9D9D9"/>
</mask>
<g mask="url(#mask0_339_858)">
<path d="M13.25 14.25H10C9.78717 14.25 9.609 14.3218 9.4655 14.4655C9.32183 14.609 9.25 14.7872 9.25 15C9.25 15.2128 9.32183 15.391 9.4655 15.5345C9.609 15.6782 9.78717 15.75 10 15.75H11.25V16C11.25 16.2128 11.3218 16.391 11.4655 16.5345C11.609 16.6782 11.7872 16.75 12 16.75C12.2128 16.75 12.391 16.6782 12.5345 16.5345C12.6782 16.391 12.75 16.2128 12.75 16V15.75H13.8652C14.1102 15.75 14.3189 15.6638 14.4913 15.4913C14.6638 15.3189 14.75 15.1102 14.75 14.8652V12.1348C14.75 11.8898 14.6638 11.6811 14.4913 11.5088C14.3189 11.3363 14.1102 11.25 13.8652 11.25H10.75V9.75H14C14.2128 9.75 14.391 9.67817 14.5345 9.5345C14.6782 9.391 14.75 9.21283 14.75 9C14.75 8.78717 14.6782 8.609 14.5345 8.4655C14.391 8.32183 14.2128 8.25 14 8.25H12.75V8C12.75 7.78717 12.6782 7.609 12.5345 7.4655C12.391 7.32183 12.2128 7.25 12 7.25C11.7872 7.25 11.609 7.32183 11.4655 7.4655C11.3218 7.609 11.25 7.78717 11.25 8V8.25H10.1348C9.88975 8.25 9.68108 8.33625 9.50875 8.50875C9.33625 8.68108 9.25 8.88975 9.25 9.13475V11.8652C9.25 12.1102 9.33625 12.3189 9.50875 12.4913C9.68108 12.6638 9.88975 12.75 10.1348 12.75H13.25V14.25ZM4.30775 19.5C3.80258 19.5 3.375 19.325 3.025 18.975C2.675 18.625 2.5 18.1974 2.5 17.6923V6.30775C2.5 5.80258 2.675 5.375 3.025 5.025C3.375 4.675 3.80258 4.5 4.30775 4.5H19.6923C20.1974 4.5 20.625 4.675 20.975 5.025C21.325 5.375 21.5 5.80258 21.5 6.30775V17.6923C21.5 18.1974 21.325 18.625 20.975 18.975C20.625 19.325 20.1974 19.5 19.6923 19.5H4.30775ZM4.30775 18H19.6923C19.7693 18 19.8398 17.9679 19.9038 17.9038C19.9679 17.8398 20 17.7693 20 17.6923V6.30775C20 6.23075 19.9679 6.16025 19.9038 6.09625C19.8398 6.03208 19.7693 6 19.6923 6H4.30775C4.23075 6 4.16025 6.03208 4.09625 6.09625C4.03208 6.16025 4 6.23075 4 6.30775V17.6923C4 17.7693 4.03208 17.8398 4.09625 17.9038C4.16025 17.9679 4.23075 18 4.30775 18Z" fill="#83899B"/>
</g>
</svg>
