<?xml version="1.0" encoding="UTF-8"?>
<svg width="24px" height="24px" viewBox="0 0 24 24" version="1.1" xmlns="http://www.w3.org/2000/svg">
  <g stroke="none" stroke-width="1" fill="none" fill-rule="evenodd">
    <path d="M12,2 C17.5228,2 22,6.47715 22,12 C22,17.5228 17.5228,22 12,22 C6.47715,22 2,17.5228 2,12 C2,6.47715 6.47715,2 12,2 Z" fill="currentColor" fill-rule="nonzero"/>
    <path d="M12,4 C16.4183,4 20,7.58172 20,12 C20,16.4183 16.4183,20 12,20 C7.58172,20 4,16.4183 4,12 C4,7.58172 7.58172,4 12,4 Z" fill="white" fill-rule="nonzero"/>
    <path d="M12,5.5 C15.5899,5.5 18.5,8.41015 18.5,12 C18.5,15.5899 15.5899,18.5 12,18.5 C8.41015,18.5 5.5,15.5899 5.5,12 C5.5,8.41015 8.41015,5.5 12,5.5 Z" fill="currentColor" fill-rule="nonzero"/>
    <path d="M10.7,9.7 C11.2,9.2 11.7,8.9 12.4,8.8 C13.1,8.7 13.7,8.9 14.2,9.2 C14.7,9.5 15.1,10 15.2,10.6 C15.3,11.2 15.2,11.8 14.8,12.4 C14.7,12.6 14.5,12.8 14.3,13 C14.1,13.2 13.8,13.4 13.6,13.6 C13.4,13.8 13.2,13.9 13.1,14.1 C13,14.3 12.9,14.5 12.9,14.7 L12.9,15.1 L11.4,15.1 L11.4,14.5 C11.4,14.1 11.5,13.8 11.6,13.5 C11.7,13.2 11.9,13 12,12.8 C12.1,12.6 12.3,12.4 12.5,12.3 C12.7,12.2 12.9,12 13,11.8 C13.1,11.6 13.2,11.5 13.3,11.3 C13.4,11.1 13.4,10.9 13.3,10.7 C13.2,10.5 13.1,10.3 12.9,10.2 C12.7,10.1 12.5,10 12.2,10 C12,10 11.8,10.1 11.6,10.2 C11.4,10.3 11.3,10.5 11.2,10.8 L9.8,10.4 C9.9,10 10.2,9.8 10.7,9.7 Z M12.2,17.2 C11.9,17.2 11.7,17.1 11.5,16.9 C11.3,16.7 11.2,16.5 11.2,16.2 C11.2,15.9 11.3,15.7 11.5,15.5 C11.7,15.3 11.9,15.2 12.2,15.2 C12.5,15.2 12.7,15.3 12.9,15.5 C13.1,15.7 13.2,15.9 13.2,16.2 C13.2,16.5 13.1,16.7 12.9,16.9 C12.7,17.1 12.5,17.2 12.2,17.2 Z" fill="white" fill-rule="nonzero"/>
  </g>
</svg>
