<svg width="48" height="49" viewBox="0 0 48 49" fill="none" xmlns="http://www.w3.org/2000/svg">
<rect y="0.5" width="48" height="48" rx="8" fill="#DBBF98"/>
<rect y="0.5" width="48" height="48" rx="8" fill="url(#paint0_radial_472_3436)" fill-opacity="0.6"/>
<path d="M30.5 24.5C30.5 19 27.5 15 24 15C20.5 15 17.5 19 17.5 24.5C17.5 30 20.5 34 24 34C27.5 34 30.5 30 30.5 24.5Z" fill="white"/>
<path d="M24 30C26 30 28 28 28 24.5C28 21 26 19 24 19C22 19 20 21 20 24.5C20 28 22 30 24 30Z" fill="#C5A87F"/>
<defs>
<radialGradient id="paint0_radial_472_3436" cx="0" cy="0" r="1" gradientUnits="userSpaceOnUse" gradientTransform="translate(24 24.5) rotate(90) scale(28.5)">
<stop stop-color="#C5A87F"/>
<stop offset="1" stop-color="#C5A87F" stop-opacity="0"/>
</radialGradient>
</defs>
</svg>