<svg width="48" height="49" viewBox="0 0 200 200" fill="none" xmlns="http://www.w3.org/2000/svg">
<path d="M200,0v200H0V0h200ZM49,28c-3.3,0-6.7,0-10,0,0,3.3,0,6.7,0,10-3.3,0-6.7,0-10,0,0,31.7,0,63.3,0,95,3.3,0,6.7,0,10,0,0,6.3,0,12.7,0,19,3.3,0,6.7,0,10,0-.9,12,.6,9.9,10,10,0,13.3-2,8,10,9,.5.5-1.1,10,1.5,10h79.5c0-3.3,0-6.7,0-10,3.3,0,6.7,0,10,0,0-3,0-6,0-9,1.3-.4,10,.5,10,0v-29c-3.3,0-6.7,0-10,0,.4-13.8,1.6-9.3-10-10-.4-.4.5-8.6,0-9-1.1-1.1-25.8,0-30,0-.1-6.3,0-12.7,0-19-3.3,0-6.7,0-10,0v-9c1.5,0,7.7.3,8,0s-.4-3.7,0-4c5.3-.1,3.9,1.3,4-4,5.3-.1,3.9,1.3,4-4,.3-.3,3.7.4,4,0s-.2-6.5,0-8c-3.3,0-6.7,0-10,0v-9c3.3,0,6.7,0,10,0v-29c-3.3,0-6.7,0-10,0,0-3,0-6,0-9-23.7,0-47.3,0-71,0,0,3,0,6,0,9Z" fill="#7f38c9"/>
<path d="M103,74c0,1.3,0,2.7,0,4-1.3,0-2.7,0-4,0,0-1.3,0-2.7,0-4,1.3,0,2.7,0,4,0Z" fill="#0d0b0a"/>
<path d="M39,66c30.1,0,61,0,91,0-.2,1.5.3,7.7,0,8-5.5.1-3.8-1.2-4,4-5.5,0-3.8-1.2-4,4-5.5.1-3.8-1.2-4,4-7.2,0-19.9.1-27,0-.3-.4.4-3.7,0-4-5.3-.1-3.9,1.3-4-4-.3-.3-3.7.4-4,0-.6-.5.9-6-.6-7-11.2-1.6-4.6,5.3-6.4,7s-3.7-.4-4,0c-.1,5.3,1.3,3.9-4,4-.3.3.4,3.7,0,4s-7.5,0-9,0c-3.4,0-15.3.7-17.4-.1s-1.3-2.7-2.6-3.9-1.6.4-1.9,0c-.7-5.6,1.6-3.6-4.1-3.9-.9-.9,2.3-5.4-4-4,0-2.7,0-5.3,0-8h10ZM41,74c0-1.3,0-2.7,0-4-3.5-1.7-5.6,2.3-4,4,1.3,0,2.7,0,4,0,.4,6.9,1.6,2.7,2.9,4.1.5,13.2,7.6-6.1.1-8.1-.3,3.6,1.5,4.4-3,4ZM99,74c-7.7,1.3,2.2-5.6-8-4-1.4,6.4,3.1,3.1,4,4,.3,4.4-1.7,4.2,4,4,.3,3.9-1.4,4.5,4,4,0-1.3,0-2.7,0-4,1.3,0,2.7,0,4,0,0,1.3,0,2.7,0,4,3.5,1.7,5.6-2.3,4-4-1.3,0-2.7,0-4,0,.1-4.9.8-4.1-4-4-.3-3.9,1.4-4.5-4-4,0,1.3,0,2.7,0,4ZM53.1,78c-.5-.5,0-2.9-.1-4l-3,1c2.4,1.4,1.8,6.7,2,7,3.5,2.4,7.6-4.9,1.1-4Z" fill="#0d0b0a"/>
<path d="M29,74c6.3-1.4,3.1,3.2,4,4s3.7-.4,4,0c.4,1.4-1.4,4.9,2,4,0,17,0,34,0,51,3.3,0,6.7,0,10,0,.1,6.3-.2,12.7,0,19,12.7,0,9.7-2.7,10,9,2,2,14.4-5.3,11,10,26.6-.3,53.4.4,80,0,0-3.3,0-6.7,0-10h10c0,3.3,0,6.7,0,10-3.3,0-6.7,0-10,0,0,3.3,0,6.7,0,10h-79.5c-2.6,0-1-9.5-1.5-10-12-1-9.9,4.3-10-9-9.5-.1-10.8,2.1-10-10-3.3,0-6.7,0-10,0,0-6.3,0-12.7,0-19-3.3,0-6.7,0-10,0,0-19.7,0-39.4,0-59Z" fill="#af8a5d"/>
<path d="M110,86v9c3.3,0,6.7,0,10,0,0,6.3-.1,12.7,0,19,4.2,0,28.9-1.1,30,0s-.5,8.6,0,9c11.7.7,10.3-3.9,10,10,3.3,0,6.7,0,10,0v29c0,.5-8.7-.4-10,0,0-9.7.1-19.3,0-29-4.3,0-28.9,1.1-30,0s.5-9.6,0-10c-10.7-1.1-10.5,4.6-10-9-3.3,0-6.7,0-10,0,0-6.3,0-12.7,0-19-3.3,0-6.7,0-10,0v-9c3.3,0,6.7,0,10,0Z" fill="#e2d2b4"/>
<path d="M69,19c17,0,34,0,51,0,0,3,0,6,0,9,3.3,0,6.7,0,10,0v29c-3.3,0-6.7,0-10,0v9c-3.3,0-6.7,0-10,0v-9c3.3,0,6.7,0,10,0,0-9.6.2-19.4,0-29-17-.3-34,0-51,0,0-3,0-6,0-9Z" fill="#e2d2b4"/>
<path d="M69,19c0,3,0,6,0,9-6.6,0-13.4-.1-20,0,0,3.3,0,6.7,0,10-3.3,0-6.7,0-10,0-.2,9.3.1,18.7,0,28h-10c0-9.3,0-18.7,0-28,3.3,0,6.7,0,10,0,0-3.3,0-6.7,0-10,3.3,0,6.7,0,10,0,0-3,0-6,0-9,6.7,0,13.4,0,20,0Z" fill="#af8a5d"/>
<path d="M59,86c1.2,20.6-5.4,18.1,10,18,.4,24.5-4.3,18.2,19.5,19,2.6,0,1,9.5,1.5,10s9.6-.5,10,0c0,13.3-2,8,10,9,.5.5-.5,9.6,0,10,1.8,1.8,43.9-1.4,50,0,0,3,0,6,0,9h-10c0,3.3,0,6.7,0,10-26.6.4-53.4-.3-80,0,3.4-15.3-9-8-11-10-.3-11.7,2.7-8.9-10-9-.2-6.3.1-12.7,0-19-3.3,0-6.7,0-10,0,0-17,0-34,0-51,1.3,1.2,1.1,3.3,2.6,3.9,2.1.8,14,.2,17.4.1Z" fill="#c5a880"/>
<path d="M59,86c1.5,0,8.7.3,9,0s-.4-3.7,0-4c5.4-.1,3.8,1.3,4-4,.3-.3,3.7.4,4,0,1.8-1.7-4.8-8.7,6.4-7,1.5,1.1,0,6.5.6,7,5.3.1,3.9-1.3,4,4,5.3.2,3.9-1.4,4,4,.3.3,7.3,0,9,0v9c3.3,0,6.7,0,10,0,0,6.3,0,12.7,0,19,3.3,0,6.7,0,10,0-.5,13.6-.7,7.9,10,9,.5.5-.5,9.6,0,10,1.1,1.1,25.8,0,30,0,.1,6.3,0,12.7,0,19-6.1-1.4-48.2,1.8-50,0s.5-9.6,0-10c-12-.9-9.9,4.2-10-9-.5-.5-9.6.5-10,0s1.1-10-1.5-10c-23.8-.8-19.1,5.4-19.5-19-15.4.1-8.8,2.6-10-18Z" fill="#dbbf98"/>
<path d="M120,28c.2,9.6,0,19.4,0,29-3.3,0-6.7,0-10,0v9c-17,0-34,0-51,0,.7-3.7-1-27,0-28,11.7-.7,10.4,3.9,10-10,17,0,34-.3,51,0Z" fill="#dbbf98"/>
<path d="M69,28c.4,13.8,1.6,9.3-10,10-1,1,.8,24.3,0,28h-20c.1-9.3-.2-18.7,0-28,3.3,0,6.7,0,10,0,0-3.3,0-6.7,0-10,6.6-.1,13.4,0,20,0Z" fill="#c5a880"/>
<path d="M41,74c-1.3,0-2.7,0-4,0-1.6-1.7.5-5.7,4-4,0,1.3,0,2.7,0,4,4.6.4,2.7-.4,3-4,7.5,1.9.4,21.2-.1,8.1-1.3-1.3-2.5,2.9-2.9-4.1Z" fill="#e2d2b4"/>
<path d="M99,74c0-1.3,0-2.7,0-4,5.4-.4,3.7,0,4,4-1.3,0-2.7,0-4,0Z" fill="#e2d2b4"/>
<path d="M103,74c4.8,0,4.1-.9,4,4,1.3,0,2.7,0,4,0,1.6,1.7-.5,5.7-4,4,0-1.3,0-2.7,0-4-1.3,0-2.7,0-4,0,0-1.3,0-2.7,0-4Z" fill="#e2d2b4"/>
<path d="M103,78c0,1.3,0,2.7,0,4-5.4.4-3.7,0-4-4,1.3,0,2.7,0,4,0Z" fill="#e2d2b4"/>
<path d="M99,78c-5.7.2-3.7.4-4-4-.9-.9-5.4,2.4-4-4,10.2-1.6.3,5.3,8,4,0,1.3,0,2.7,0,4Z" fill="#e2d2b4"/>
<path d="M53.1,78c6.5-.9,2.4,6.5-1.1,4-.3-.3.4-5.6-2-7l3-1c.2,1-.4,3.4.1,4Z" fill="#e2d2b4"/>
</svg>