<svg width="48" height="49" viewBox="0 0 48 49" fill="none" xmlns="http://www.w3.org/2000/svg">
<rect y="0.5" width="48" height="48" rx="8" fill="#7f38c9"/>
<rect y="0.5" width="48" height="48" rx="8" fill="url(#paint0_radial_472_3436)" fill-opacity="0.6"/>
<path d="M35,9.5v30H13v-30h22ZM18.35,13.7c-0.495,0-1.005,0-1.5,0,0,0.495,0,1.005,0,1.5-0.495,0-1.005,0-1.5,0,0,4.755,0,9.495,0,14.25,0.495,0,1.005,0,1.5,0,0,0.945,0,1.905,0,2.85,0.495,0,1.005,0,1.5,0-0.135,1.8,0.09,1.485,1.5,1.5,0,1.995-0.3,1.2,1.5,1.35,0.075,0.075-0.165,1.5,0.225,1.5h11.925c0-0.495,0-1.005,0-1.5,0.495,0,1.005,0,1.5,0,0-0.45,0-0.9,0-1.35,0.195-0.06,1.5,0.075,1.5,0v-4.35c-0.495,0-1.005,0-1.5,0,0.06-2.07,0.24-1.395-1.5-1.5-0.06-0.06,0.075-1.29,0-1.35-0.165-0.165-3.87,0-4.5,0-0.015-0.945,0-1.905,0-2.85-0.495,0-1.005,0-1.5,0v-1.35c0.225,0,1.155,0.045,1.2,0s-0.06-0.555,0-0.6c0.795-0.015,0.585,0.195,0.6-0.6,0.795-0.015,0.585,0.195,0.6-0.6,0.045-0.045,0.555,0.06,0.6,0s-0.03-0.975,0-1.2c-0.495,0-1.005,0-1.5,0v-1.35c0.495,0,1.005,0,1.5,0v-4.35c-0.495,0-1.005,0-1.5,0,0-0.45,0-0.9,0-1.35-3.555,0-7.095,0-10.65,0,0,0.45,0,0.9,0,1.35Z" fill="#FFF"/>
<defs>
<radialGradient id="paint0_radial_472_3436" cx="0" cy="0" r="1" gradientUnits="userSpaceOnUse" gradientTransform="translate(24 24.5) rotate(90) scale(28.5)">
<stop stop-color="#5f22a5"/>
<stop offset="1" stop-color="#5f22a5" stop-opacity="0"/>
</radialGradient>
</defs>
</svg>