<svg width="48" height="49" viewBox="0 0 48 49" fill="none" xmlns="http://www.w3.org/2000/svg">
<rect y="0.5" width="48" height="48" rx="8" fill="#41AC48"/>
<path d="M24.0342 33.578C22.4049 33.578 21.0356 33.3353 19.9262 32.85C18.8342 32.3473 18.0022 31.6453 17.4302 30.744C16.8756 29.8253 16.5982 28.742 16.5982 27.494H19.9262C19.9262 28.0313 20.0649 28.5427 20.3422 29.028C20.6196 29.5133 21.0529 29.912 21.6422 30.224C22.2489 30.5187 23.0462 30.666 24.0342 30.666C25.3342 30.666 26.3222 30.4147 26.9982 29.912C27.6742 29.4093 28.0122 28.7853 28.0122 28.04C28.0122 27.364 27.7176 26.8007 27.1282 26.35C26.5562 25.8993 25.6636 25.622 24.4502 25.518L22.9942 25.388C21.2089 25.2147 19.7876 24.6773 18.7302 23.776C17.6729 22.8573 17.1442 21.5573 17.1442 19.876C17.1442 18.7147 17.4042 17.7353 17.9242 16.938C18.4616 16.1407 19.2242 15.5427 20.2122 15.144C21.2176 14.728 22.4049 14.52 23.7742 14.52C25.1956 14.52 26.4002 14.754 27.3882 15.222C28.3936 15.69 29.1562 16.366 29.6762 17.25C30.2136 18.1167 30.4822 19.174 30.4822 20.422H27.1542C27.1542 19.8847 27.0242 19.3907 26.7642 18.94C26.5216 18.4893 26.1489 18.1253 25.6462 17.848C25.1609 17.5707 24.5369 17.432 23.7742 17.432C23.0809 17.432 22.4916 17.536 22.0062 17.744C21.5209 17.952 21.1482 18.238 20.8882 18.602C20.6282 18.966 20.4982 19.3907 20.4982 19.876C20.4982 20.4827 20.7149 21.02 21.1482 21.488C21.5989 21.956 22.3182 22.2333 23.3062 22.32L24.7622 22.45C26.7556 22.6233 28.3502 23.178 29.5462 24.114C30.7596 25.05 31.3662 26.3587 31.3662 28.04C31.3662 29.2013 31.0716 30.198 30.4822 31.03C29.9102 31.8447 29.0782 32.4773 27.9862 32.928C26.8942 33.3613 25.5769 33.578 24.0342 33.578ZM22.4482 36.854V33.058H25.4642V36.854H22.4482ZM22.3442 15.794V11.998H25.3602V15.794H22.3442Z" fill="white"/>
</svg>
