<svg width="48" height="49" viewBox="0 0 48 49" fill="none" xmlns="http://www.w3.org/2000/svg">
<rect y="0.5" width="48" height="48" rx="8" fill="#DBBF98"/>
<rect y="0.5" width="48" height="48" rx="8" fill="url(#paint0_radial_472_3436)" fill-opacity="0.6"/>
<path d="M24 14.5C19.5 14.5 15 17.5 15 24.5C15 31.5 19.5 34.5 24 34.5C28.5 34.5 33 31.5 33 24.5C33 17.5 28.5 14.5 24 14.5Z" fill="white"/>
<path d="M24 17.5C21 17.5 18 19.5 18 24.5C18 29.5 21 31.5 24 31.5C27 31.5 30 29.5 30 24.5C30 19.5 27 17.5 24 17.5Z" fill="#DBBF98"/>
<defs>
<radialGradient id="paint0_radial_472_3436" cx="0" cy="0" r="1" gradientUnits="userSpaceOnUse" gradientTransform="translate(24 24.5) rotate(90) scale(28.5)">
<stop stop-color="#C5A87F"/>
<stop offset="1" stop-color="#C5A87F" stop-opacity="0"/>
</radialGradient>
</defs>
</svg>