<svg width="24" height="25" viewBox="0 0 24 25" fill="none" xmlns="http://www.w3.org/2000/svg">
<mask id="mask0_472_3524" style="mask-type:alpha" maskUnits="userSpaceOnUse" x="0" y="0" width="24" height="25">
<rect y="0.5" width="24" height="24" fill="#D9D9D9"/>
</mask>
<g mask="url(#mask0_472_3524)">
<path d="M4 21.5C3.71667 21.5 3.47917 21.4042 3.2875 21.2125C3.09583 21.0208 3 20.7833 3 20.5V19.5C3 19.2167 3.09583 18.9792 3.2875 18.7875C3.47917 18.5958 3.71667 18.5 4 18.5C4.28333 18.5 4.52083 18.5958 4.7125 18.7875C4.90417 18.9792 5 19.2167 5 19.5V20.5C5 20.7833 4.90417 21.0208 4.7125 21.2125C4.52083 21.4042 4.28333 21.5 4 21.5ZM8 21.5C7.71667 21.5 7.47917 21.4042 7.2875 21.2125C7.09583 21.0208 7 20.7833 7 20.5V15C7 14.7167 7.09583 14.4792 7.2875 14.2875C7.47917 14.0958 7.71667 14 8 14C8.28333 14 8.52083 14.0958 8.7125 14.2875C8.90417 14.4792 9 14.7167 9 15V20.5C9 20.7833 8.90417 21.0208 8.7125 21.2125C8.52083 21.4042 8.28333 21.5 8 21.5ZM12 21.5C11.7167 21.5 11.4792 21.4042 11.2875 21.2125C11.0958 21.0208 11 20.7833 11 20.5V17C11 16.7167 11.0958 16.4792 11.2875 16.2875C11.4792 16.0958 11.7167 16 12 16C12.2833 16 12.5208 16.0958 12.7125 16.2875C12.9042 16.4792 13 16.7167 13 17V20.5C13 20.7833 12.9042 21.0208 12.7125 21.2125C12.5208 21.4042 12.2833 21.5 12 21.5ZM16 21.5C15.7167 21.5 15.4792 21.4042 15.2875 21.2125C15.0958 21.0208 15 20.7833 15 20.5V15.5C15 15.2167 15.0958 14.9792 15.2875 14.7875C15.4792 14.5958 15.7167 14.5 16 14.5C16.2833 14.5 16.5208 14.5958 16.7125 14.7875C16.9042 14.9792 17 15.2167 17 15.5V20.5C17 20.7833 16.9042 21.0208 16.7125 21.2125C16.5208 21.4042 16.2833 21.5 16 21.5ZM20 21.5C19.7167 21.5 19.4792 21.4042 19.2875 21.2125C19.0958 21.0208 19 20.7833 19 20.5V11.5C19 11.2167 19.0958 10.9792 19.2875 10.7875C19.4792 10.5958 19.7167 10.5 20 10.5C20.2833 10.5 20.5208 10.5958 20.7125 10.7875C20.9042 10.9792 21 11.2167 21 11.5V20.5C21 20.7833 20.9042 21.0208 20.7125 21.2125C20.5208 21.4042 20.2833 21.5 20 21.5ZM14 12.475C13.7333 12.475 13.4792 12.425 13.2375 12.325C12.9958 12.225 12.775 12.0833 12.575 11.9L10 9.32499L4.7 14.625C4.5 14.825 4.2625 14.9208 3.9875 14.9125C3.7125 14.9042 3.475 14.8 3.275 14.6C3.09167 14.4 3.00417 14.1625 3.0125 13.8875C3.02083 13.6125 3.11667 13.3833 3.3 13.2L8.575 7.92499C8.775 7.72499 8.99583 7.57915 9.2375 7.48749C9.47917 7.39582 9.73333 7.34999 10 7.34999C10.2667 7.34999 10.525 7.39582 10.775 7.48749C11.025 7.57915 11.2417 7.72499 11.425 7.92499L14 10.5L19.3 5.19999C19.5 4.99999 19.7375 4.90415 20.0125 4.91249C20.2875 4.92082 20.525 5.02499 20.725 5.22499C20.9083 5.42499 20.9958 5.66249 20.9875 5.93749C20.9792 6.21249 20.8833 6.44165 20.7 6.62499L15.425 11.9C15.2417 12.0833 15.025 12.225 14.775 12.325C14.525 12.425 14.2667 12.475 14 12.475Z" fill="black"/>
</g>
</svg>
