<svg width="32" height="32" viewBox="0 0 32 32" fill="none" xmlns="http://www.w3.org/2000/svg">
<mask id="mask0_472_4102" style="mask-type:alpha" maskUnits="userSpaceOnUse" x="0" y="0" width="32" height="32">
<rect width="32" height="32" fill="white"/>
</mask>
<g mask="url(#mask0_472_4102)">
<path d="M15.9997 17.8664L9.46637 24.3998C9.22192 24.6442 8.91081 24.7664 8.53303 24.7664C8.15525 24.7664 7.84414 24.6442 7.5997 24.3998C7.35525 24.1553 7.23303 23.8442 7.23303 23.4664C7.23303 23.0886 7.35525 22.7775 7.5997 22.5331L14.133 15.9998L7.5997 9.46643C7.35525 9.22198 7.23303 8.91087 7.23303 8.53309C7.23303 8.15532 7.35525 7.8442 7.5997 7.59976C7.84414 7.35532 8.15525 7.23309 8.53303 7.23309C8.91081 7.23309 9.22192 7.35532 9.46637 7.59976L15.9997 14.1331L22.533 7.59976C22.7775 7.35532 23.0886 7.23309 23.4664 7.23309C23.8441 7.23309 24.1553 7.35532 24.3997 7.59976C24.6441 7.8442 24.7664 8.15532 24.7664 8.53309C24.7664 8.91087 24.6441 9.22198 24.3997 9.46643L17.8664 15.9998L24.3997 22.5331C24.6441 22.7775 24.7664 23.0886 24.7664 23.4664C24.7664 23.8442 24.6441 24.1553 24.3997 24.3998C24.1553 24.6442 23.8441 24.7664 23.4664 24.7664C23.0886 24.7664 22.7775 24.6442 22.533 24.3998L15.9997 17.8664Z" fill="white"/>
</g>
</svg>
