<svg width="20" height="20" viewBox="0 0 20 20" fill="none" xmlns="http://www.w3.org/2000/svg">
<mask id="mask0_472_4285" style="mask-type:alpha" maskUnits="userSpaceOnUse" x="0" y="0" width="20" height="20">
<rect width="20" height="20" fill="#D9D9D9"/>
</mask>
<g mask="url(#mask0_472_4285)">
<path d="M1.66602 20.0002V16.6669H18.3327V20.0002H1.66602ZM4.99935 13.3335H6.16602L12.666 6.85437L11.4785 5.66687L4.99935 12.1669V13.3335ZM3.33268 15.0002V11.4585L12.666 2.14604C12.8188 1.99326 12.9959 1.8752 13.1973 1.79187C13.3987 1.70854 13.6105 1.66687 13.8327 1.66687C14.0549 1.66687 14.2702 1.70854 14.4785 1.79187C14.6868 1.8752 14.8743 2.0002 15.041 2.16687L16.1868 3.33354C16.3535 3.48631 16.475 3.66687 16.5514 3.8752C16.6278 4.08354 16.666 4.29881 16.666 4.52104C16.666 4.72937 16.6278 4.93423 16.5514 5.13562C16.475 5.33701 16.3535 5.52104 16.1868 5.6877L6.87435 15.0002H3.33268Z" fill="black"/>
</g>
</svg>
