<?xml version="1.0" encoding="utf-8"?>
<!-- Generator: Adobe Illustrator 27.0.1, SVG Export Plug-In . SVG Version: 6.00 Build 0)  -->
<svg version="1.1" id="Layer_1" xmlns="http://www.w3.org/2000/svg" xmlns:xlink="http://www.w3.org/1999/xlink" x="0px" y="0px"
	 viewBox="0 0 100 100" style="enable-background:new 0 0 100 100;" xml:space="preserve">
<path d="M86.6,42.5h-3c-2.6,0-4.9-1.6-5.9-3.9l-0.1-0.2c-0.9-2.3-0.4-4.9,1.3-6.7l2.2-2.2c1.3-1.3,1.3-3.5,0-4.8l-5.8-5.8
	c-1.3-1.3-3.5-1.3-4.8,0L68.3,21c-1.8,1.8-4.4,2.3-6.7,1.3l-0.2-0.1c-2.4-1-3.9-3.3-3.9-5.9v-3c0-1.9-1.5-3.4-3.4-3.4h-8.2
	c-1.9,0-3.4,1.5-3.4,3.4v3c0,2.6-1.6,4.9-4,5.9l0,0c-2.4,1-5.2,0.4-7-1.4l-2.1-2.1c-1.3-1.3-3.5-1.3-4.8,0l-5.8,5.8
	c-1.3,1.3-1.3,3.5,0,4.8l2.1,2.1c1.8,1.8,2.4,4.6,1.4,6.9l0,0.1c-1,2.4-3.3,3.9-5.9,3.9l-3,0c-1.9,0-3.4,1.5-3.4,3.4v8.2
	c0,1.9,1.5,3.4,3.4,3.4h3c2.6,0,4.9,1.6,5.9,3.9l0,0.1c1,2.4,0.4,5.1-1.4,6.9l-2.1,2.1c-1.3,1.3-1.3,3.5,0,4.8l5.8,5.8
	c1.3,1.3,3.4,1.3,4.7,0l2.2-2.2c1.8-1.8,4.6-2.4,6.9-1.4l0.1,0c2.4,1,3.9,3.3,3.9,5.9v3c0,1.9,1.5,3.4,3.4,3.4h8.2
	c1.9,0,3.4-1.5,3.4-3.4v-3c0-2.6,1.6-4.9,3.9-5.9l0.1,0c2.4-1,5.1-0.4,6.9,1.4l2.2,2.2c1.3,1.3,3.4,1.3,4.7,0l5.8-5.8
	c1.3-1.3,1.3-3.5,0-4.8l-2.1-2.1c-1.8-1.8-2.4-4.6-1.4-6.9l0-0.1c1-2.4,3.3-3.9,5.9-3.9h3c1.9,0,3.4-1.5,3.4-3.4v-8.2
	C90,44,88.5,42.5,86.6,42.5z M62.7,56.1l-6.6,6.6c-0.4,0.4-0.9,0.6-1.4,0.6h-9.4c-0.5,0-1-0.2-1.4-0.6l-6.6-6.6
	c-0.4-0.4-0.6-0.9-0.6-1.4v-9.4c0-0.5,0.2-1,0.6-1.4l6.6-6.6c0.4-0.4,0.9-0.6,1.4-0.6h9.4c0.5,0,1,0.2,1.4,0.6l7.2,7.2c0,0,0,0,0,0
	l0,10.2C63.3,55.2,63.1,55.7,62.7,56.1z"/>
<path d="M55,50c0,2.8-2.2,5-5,5c-2.8,0-5-2.2-5-5s2.2-5,5-5C52.8,45,55,47.2,55,50z"/>
</svg>
