<?xml version="1.0" encoding="utf-8"?>
<!-- Generator: Adobe Illustrator 27.0.1, SVG Export Plug-In . SVG Version: 6.00 Build 0)  -->
<svg version="1.1" id="Layer_1" xmlns="http://www.w3.org/2000/svg" xmlns:xlink="http://www.w3.org/1999/xlink" x="0px" y="0px"
	 viewBox="0 0 100 100" style="enable-background:new 0 0 100 100;" xml:space="preserve">
<path d="M84,45.2l4.1-3.1c1.1-0.8,1.5-2.3,1-3.6l-3.4-8.1c-0.5-1.3-1.9-2-3.2-1.8l-5,0.7c-1.9,0.3-3.8-0.3-5.2-1.7l0,0
	c-1.4-1.4-2-3.3-1.7-5.2l0.7-5c0.2-1.4-0.5-2.7-1.8-3.2l-8.1-3.4c-1.3-0.5-2.7-0.1-3.6,1L54.8,16c-1.1,1.5-2.9,2.3-4.8,2.3
	c0,0,0,0-0.1,0c-1.9,0-3.6-0.8-4.8-2.3l-3.1-4.2c-0.8-1.1-2.3-1.5-3.6-1l-8.1,3.4c-1.3,0.5-2,1.9-1.8,3.2l0.8,5.1
	c0.3,1.9-0.4,3.7-1.7,5c0,0,0,0,0,0c-1.3,1.3-3.2,2-5,1.7l-5.1-0.8c-1.4-0.2-2.7,0.5-3.2,1.8l-3.4,8.1c-0.5,1.3-0.1,2.7,1,3.6
	l4.2,3.1c1.5,1.1,2.3,2.9,2.3,4.8c0,0,0,0,0,0.1c0,1.9-0.8,3.6-2.3,4.8l-4.2,3.1c-1.1,0.8-1.5,2.3-1,3.6l3.4,8.1
	c0.5,1.3,1.9,2,3.2,1.8l5.1-0.8c1.9-0.3,3.7,0.4,5,1.7c0,0,0,0,0,0c1.3,1.3,2,3.2,1.7,5l-0.8,5.1c-0.2,1.4,0.5,2.7,1.8,3.2l8.1,3.4
	c1.3,0.5,2.7,0.1,3.6-1l3.1-4.1c1.1-1.5,2.9-2.3,4.8-2.3c0,0,0,0,0.1,0c1.9,0,3.6,0.8,4.8,2.3l3.1,4.2c0.8,1.1,2.3,1.5,3.6,1
	l8.1-3.4c1.3-0.5,2-1.9,1.8-3.2l-0.8-5.1c-0.3-1.9,0.4-3.7,1.7-5c0,0,0,0,0,0c1.3-1.3,3.2-2,5-1.7l5.1,0.8c1.4,0.2,2.7-0.5,3.2-1.8
	l3.4-8.1c0.5-1.3,0.1-2.7-1-3.6L84,54.8c-1.5-1.1-2.3-2.9-2.3-4.8c0,0,0,0,0-0.1C81.6,48.1,82.5,46.3,84,45.2z M52.1,69.9
	c-12.6,1.3-23.2-9.3-22-21.9C31,38.6,38.6,31,48,30.1c12.7-1.2,23.2,9.3,21.9,21.9C69,61.4,61.4,69,52.1,69.9z"/>
<circle cx="50" cy="50" r="10"/>
</svg>
