<?xml version="1.0" encoding="utf-8"?>
<!-- Generator: Adobe Illustrator 27.0.1, SVG Export Plug-In . SVG Version: 6.00 Build 0)  -->
<svg version="1.1" id="Layer_1" xmlns="http://www.w3.org/2000/svg" xmlns:xlink="http://www.w3.org/1999/xlink" x="0px" y="0px"
	 viewBox="0 0 100 100" style="enable-background:new 0 0 100 100;" xml:space="preserve">
<path d="M76.7,50C76.7,50,76.7,50,76.7,50c0-2.7,1-5.2,3-6.9l5.1-4.5c1.1-0.9,1.3-2.5,0.6-3.8l-4.5-7.9c-0.7-1.2-2.2-1.8-3.6-1.3
	l-6.5,2.2c-2.4,0.8-5.1,0.6-7.3-0.7l-0.3-0.2c-2.3-1.3-4-3.6-4.5-6.3l-1.6-8.2C56.9,11,55.6,10,54.2,10h-8.4c-1.4,0-2.7,1-2.9,2.4
	l-1.7,8.4c-0.5,2.6-2.2,4.7-4.5,6c0,0,0,0-0.1,0c-2.3,1.3-5,1.7-7.5,0.8l-6.5-2.2c-1.4-0.5-2.8,0.1-3.6,1.3l-4.5,7.9
	c-0.7,1.2-0.5,2.8,0.6,3.8l5.1,4.5c2,1.7,3,4.2,3,6.9c0,0,0,0,0,0.1c0,0,0,0,0,0.1c0,2.6-1,5.1-3,6.9l-5.1,4.5
	c-1.1,0.9-1.3,2.5-0.6,3.8l4.5,7.9c0.7,1.2,2.2,1.8,3.6,1.3l6.5-2.2c2.5-0.8,5.2-0.5,7.5,0.8c0,0,0,0,0.1,0c2.3,1.3,3.9,3.5,4.5,6
	l1.7,8.4c0.3,1.4,1.5,2.4,2.9,2.4h8.4c1.4,0,2.7-1,2.9-2.4l1.7-8.4c0.5-2.6,2.2-4.7,4.5-6c0,0,0,0,0.1,0c2.3-1.3,5-1.7,7.5-0.8
	l6.5,2.2c1.4,0.5,2.8-0.1,3.6-1.3l4.6-7.9c0.7-1.2,0.5-2.8-0.6-3.8l-5.1-4.5C77.7,55.2,76.7,52.7,76.7,50C76.7,50,76.7,50,76.7,50z
	 M51.7,63.2c-8.7,1.1-16.1-6.2-15-15c0.8-5.9,5.5-10.7,11.5-11.5c8.7-1.1,16.1,6.2,15,15C62.5,57.7,57.7,62.5,51.7,63.2z"/>
</svg>
