<svg width="25" height="24" viewBox="0 0 25 24" fill="none" xmlns="http://www.w3.org/2000/svg">
<path d="M16.9682 14.9787L16.9684 14.9785C17.3865 14.4288 17.2799 13.6455 16.7317 13.2273C16.1835 12.8091 15.3987 12.9136 14.9799 13.4635C14.3699 14.2632 13.5083 14.7008 12.6254 14.7008C11.7418 14.7008 10.8812 14.2634 10.27 13.4636C9.85125 12.9136 9.06633 12.809 8.51812 13.2273C7.96821 13.646 7.86365 14.4309 8.28187 14.9791L8.28189 14.9791C9.35178 16.3813 10.9328 17.2008 12.6254 17.2008C14.3189 17.2008 15.9002 16.3814 16.9682 14.9787ZM4.06057 10.3792L3.9356 10.4783C3.93545 10.4785 3.93529 10.4786 3.93513 10.4787C3.71956 10.6485 3.40487 10.6129 3.23234 10.3973C3.06139 10.1793 3.09884 9.86489 3.31478 9.69376C3.3148 9.69374 3.31483 9.69371 3.31486 9.69369L10.8394 3.73586C10.8396 3.7357 10.8398 3.73555 10.84 3.7354C11.8931 2.90805 13.3579 2.9071 14.4076 3.73322C14.4078 3.73335 14.408 3.73348 14.4081 3.73361L21.935 9.69369C21.935 9.69371 21.935 9.69373 21.935 9.69375C22.1517 9.86546 22.1887 10.1798 22.0178 10.397C21.9183 10.5218 21.7728 10.5868 21.6244 10.5868C21.5162 10.5868 21.408 10.5521 21.3144 10.4785C21.3142 10.4783 21.3141 10.4782 21.3139 10.4781L21.1893 10.3792L20.3784 9.73563V10.7708V17.5768C20.3784 19.4001 18.8918 20.8858 17.0654 20.8858H8.1854C6.35794 20.8858 4.8714 19.4001 4.8714 17.5768V10.7708V9.73564L4.06057 10.3792Z" fill="#002118" stroke="#002118"/>
</svg>
