<svg width="24" height="24" viewBox="0 0 24 24" fill="none" xmlns="http://www.w3.org/2000/svg">
<mask id="mask0_339_862" style="mask-type:alpha" maskUnits="userSpaceOnUse" x="0" y="0" width="24" height="24">
<rect width="24" height="24" fill="#D9D9D9"/>
</mask>
<g mask="url(#mask0_339_862)">
<path d="M4.50023 18.6923V11.2403L3.23098 12.2271C3.05531 12.3552 2.86939 12.4058 2.67323 12.3788C2.47723 12.352 2.31506 12.2507 2.18673 12.0751C2.05856 11.8994 2.00889 11.7135 2.03773 11.5173C2.06656 11.3211 2.16373 11.159 2.32923 11.0308L10.8907 4.46355C11.0547 4.34305 11.2313 4.25263 11.4205 4.1923C11.6095 4.13213 11.8027 4.10205 12.0002 4.10205C12.1977 4.10205 12.3894 4.13213 12.5752 4.1923C12.7611 4.25263 12.9361 4.34305 13.1002 4.46355L21.6867 11.0308C21.8521 11.159 21.9466 11.3211 21.9705 11.5173C21.9941 11.7135 21.9419 11.8994 21.8137 12.0751C21.6854 12.2404 21.5232 12.3366 21.3272 12.3636C21.1311 12.3904 20.9502 12.3397 20.7847 12.2116L19.5002 11.2403V18.6923C19.5002 19.191 19.3236 19.617 18.9705 19.9703C18.6171 20.3235 18.1911 20.5001 17.6925 20.5001H6.30798C5.80931 20.5001 5.38331 20.3235 5.02998 19.9703C4.67681 19.617 4.50023 19.191 4.50023 18.6923ZM6.30798 19.0001H17.6925C17.7823 19.0001 17.8561 18.9712 17.9137 18.9136C17.9714 18.8559 18.0002 18.7821 18.0002 18.6923V10.1001L12.183 5.6693C12.1316 5.62447 12.0707 5.60205 12.0002 5.60205C11.9297 5.60205 11.8688 5.62447 11.8175 5.6693L6.00023 10.1001V18.6923C6.00023 18.7821 6.02906 18.8559 6.08673 18.9136C6.1444 18.9712 6.21814 19.0001 6.30798 19.0001ZM8.00023 14.8846C8.24506 14.8846 8.45373 14.7984 8.62623 14.6261C8.79856 14.4536 8.88473 14.2449 8.88473 14.0001C8.88473 13.7552 8.79856 13.5466 8.62623 13.3741C8.45373 13.2017 8.24506 13.1156 8.00023 13.1156C7.7554 13.1156 7.54673 13.2017 7.37423 13.3741C7.20189 13.5466 7.11573 13.7552 7.11573 14.0001C7.11573 14.2449 7.20189 14.4536 7.37423 14.6261C7.54673 14.7984 7.7554 14.8846 8.00023 14.8846ZM12.0002 14.8846C12.2451 14.8846 12.4537 14.7984 12.6262 14.6261C12.7986 14.4536 12.8847 14.2449 12.8847 14.0001C12.8847 13.7552 12.7986 13.5466 12.6262 13.3741C12.4537 13.2017 12.2451 13.1156 12.0002 13.1156C11.7554 13.1156 11.5467 13.2017 11.3742 13.3741C11.2019 13.5466 11.1157 13.7552 11.1157 14.0001C11.1157 14.2449 11.2019 14.4536 11.3742 14.6261C11.5467 14.7984 11.7554 14.8846 12.0002 14.8846ZM16.0002 14.8846C16.2451 14.8846 16.4537 14.7984 16.6262 14.6261C16.7986 14.4536 16.8847 14.2449 16.8847 14.0001C16.8847 13.7552 16.7986 13.5466 16.6262 13.3741C16.4537 13.2017 16.2451 13.1156 16.0002 13.1156C15.7554 13.1156 15.5467 13.2017 15.3742 13.3741C15.2019 13.5466 15.1157 13.7552 15.1157 14.0001C15.1157 14.2449 15.2019 14.4536 15.3742 14.6261C15.5467 14.7984 15.7554 14.8846 16.0002 14.8846ZM6.30798 19.0001H6.00023H18.0002H6.30798Z" fill="#83899B"/>
</g>
</svg>
