<svg width="24" height="24" viewBox="0 0 24 24" fill="none" xmlns="http://www.w3.org/2000/svg">
<mask id="mask0_339_870" style="mask-type:alpha" maskUnits="userSpaceOnUse" x="0" y="0" width="24" height="24">
<rect width="24" height="24" fill="#D9D9D9"/>
</mask>
<g mask="url(#mask0_339_870)">
<path d="M4.69625 20.0267C4.40142 20.1408 4.12833 20.1082 3.877 19.9287C3.62567 19.7492 3.5 19.5037 3.5 19.1922V6.07693C3.5 5.87943 3.55292 5.70218 3.65875 5.54518C3.76442 5.38818 3.91283 5.27443 4.104 5.20393L8.40775 3.74418C8.60508 3.67368 8.8025 3.63843 9 3.63843C9.1975 3.63843 9.39492 3.67368 9.59225 3.74418L15 5.63843L19.3038 3.97318C19.5986 3.85901 19.8717 3.88685 20.123 4.05668C20.3743 4.22651 20.5 4.46401 20.5 4.76918V11.5884C20.5 11.8009 20.4281 11.979 20.2843 12.1227C20.1404 12.2665 19.9623 12.3384 19.7498 12.3384C19.5371 12.3384 19.359 12.2665 19.2155 12.1227C19.0718 11.979 19 11.8009 19 11.5884V5.69993L15.75 6.92693V9.61918C15.75 9.83168 15.6781 10.0098 15.5343 10.1534C15.3904 10.2973 15.2123 10.3692 14.9998 10.3692C14.7871 10.3692 14.609 10.2973 14.4655 10.1534C14.3218 10.0098 14.25 9.83168 14.25 9.61918V6.92693L9.75 5.35368V17.1384C9.75 17.4246 9.6705 17.6807 9.5115 17.9067C9.35233 18.1327 9.144 18.2983 8.8865 18.4037L4.69625 20.0267ZM5 18.2999L8.25 17.0537V5.35368L5 6.44993V18.2999ZM15.9438 18.1057C16.5543 18.1057 17.0631 17.915 17.4703 17.5337C17.8773 17.1522 18.0859 16.6249 18.0962 15.9519C18.1064 15.3403 17.9028 14.8283 17.4855 14.4162C17.0682 14.004 16.5543 13.7979 15.9438 13.7979C15.3331 13.7979 14.8212 14.0045 14.408 14.4177C13.995 14.8307 13.7885 15.3425 13.7885 15.9532C13.7885 16.5638 13.995 17.0753 14.408 17.4874C14.8212 17.8996 15.3331 18.1057 15.9438 18.1057ZM15.9423 19.6057C14.9374 19.6057 14.0772 19.248 13.3617 18.5327C12.6462 17.8173 12.2885 16.9574 12.2885 15.9529C12.2885 14.9484 12.6462 14.0882 13.3615 13.3722C14.0768 12.656 14.9368 12.2979 15.9413 12.2979C16.9458 12.2979 17.806 12.6558 18.522 13.3714C19.238 14.0869 19.596 14.9471 19.596 15.9519C19.596 16.3283 19.5454 16.6842 19.4443 17.0197C19.3429 17.3552 19.1942 17.6665 18.998 17.9537L20.973 19.9287C21.1115 20.0672 21.1823 20.2413 21.1855 20.4509C21.1887 20.6604 21.1211 20.836 20.9827 20.9777C20.8442 21.1193 20.6686 21.1886 20.4557 21.1854C20.2429 21.1823 20.0673 21.1114 19.9288 20.9729L17.9538 18.9979C17.6666 19.2006 17.3554 19.3525 17.0203 19.4537C16.6849 19.555 16.3256 19.6057 15.9423 19.6057Z" fill="#83899B"/>
</g>
</svg>
