<svg width="32" height="32" viewBox="0 0 32 32" fill="none" xmlns="http://www.w3.org/2000/svg">
<mask id="mask0_472_4098" style="mask-type:alpha" maskUnits="userSpaceOnUse" x="0" y="0" width="32" height="32">
<rect width="32" height="32" transform="matrix(-1 0 0 1 32 0)" fill="white"/>
</mask>
<g mask="url(#mask0_472_4098)">
<path d="M7.76667 24H14.6667C15.0444 24 15.3611 23.8723 15.6167 23.6167C15.8722 23.3612 16 23.0445 16 22.6667C16 22.2889 15.8722 21.9723 15.6167 21.7167C15.3611 21.4612 15.0444 21.3334 14.6667 21.3334H7.76667L8.96667 20.1334C9.21111 19.8889 9.33333 19.5834 9.33333 19.2167C9.33333 18.85 9.2 18.5334 8.93333 18.2667C8.68889 18.0223 8.37778 17.9 8 17.9C7.62222 17.9 7.31111 18.0223 7.06667 18.2667L3.6 21.7334C3.33333 22 3.2 22.3111 3.2 22.6667C3.2 23.0223 3.33333 23.3334 3.6 23.6L7.06667 27.0667C7.33333 27.3334 7.64444 27.4611 8 27.45C8.35555 27.4389 8.66667 27.3 8.93333 27.0334C9.17778 26.7667 9.30556 26.4556 9.31667 26.1C9.32778 25.7445 9.2 25.4334 8.93333 25.1667L7.76667 24ZM25.3333 28C26.0667 28 26.6944 27.7389 27.2167 27.2167C27.7389 26.6945 28 26.0667 28 25.3334V6.66671C28 5.93337 27.7389 5.3056 27.2167 4.78337C26.6944 4.26115 26.0667 4.00004 25.3333 4.00004H19.7667C19.5222 3.22226 19.0444 2.58337 18.3333 2.08337C17.6222 1.58337 16.8444 1.33337 16 1.33337C15.1111 1.33337 14.3167 1.58337 13.6167 2.08337C12.9167 2.58337 12.4444 3.22226 12.2 4.00004H6.66667C5.93333 4.00004 5.30555 4.26115 4.78333 4.78337C4.26111 5.3056 4 5.93337 4 6.66671V13.3334C4 13.7112 4.12778 14.0278 4.38333 14.2834C4.63889 14.5389 4.95555 14.6667 5.33333 14.6667C5.71111 14.6667 6.02778 14.5389 6.28333 14.2834C6.53889 14.0278 6.66667 13.7112 6.66667 13.3334V6.66671H9.33333V9.33337C9.33333 9.71115 9.46111 10.0278 9.71667 10.2834C9.97222 10.5389 10.2889 10.6667 10.6667 10.6667H21.3333C21.7111 10.6667 22.0278 10.5389 22.2833 10.2834C22.5389 10.0278 22.6667 9.71115 22.6667 9.33337V6.66671H25.3333V25.3334H20C19.6222 25.3334 19.3056 25.4612 19.05 25.7167C18.7944 25.9723 18.6667 26.2889 18.6667 26.6667C18.6667 27.0445 18.7944 27.3611 19.05 27.6167C19.3056 27.8723 19.6222 28 20 28H25.3333ZM16 6.66671C15.6222 6.66671 15.3056 6.53893 15.05 6.28337C14.7944 6.02782 14.6667 5.71115 14.6667 5.33337C14.6667 4.9556 14.7944 4.63893 15.05 4.38337C15.3056 4.12782 15.6222 4.00004 16 4.00004C16.3778 4.00004 16.6944 4.12782 16.95 4.38337C17.2056 4.63893 17.3333 4.9556 17.3333 5.33337C17.3333 5.71115 17.2056 6.02782 16.95 6.28337C16.6944 6.53893 16.3778 6.66671 16 6.66671Z" fill="white"/>
</g>
</svg>
