<svg width="32" height="32" viewBox="0 0 32 32" fill="none" xmlns="http://www.w3.org/2000/svg">
<mask id="mask0_472_4095" style="mask-type:alpha" maskUnits="userSpaceOnUse" x="0" y="0" width="32" height="32">
<rect width="32" height="32" fill="white"/>
</mask>
<g mask="url(#mask0_472_4095)">
<path d="M6.66667 28C5.93333 28 5.30556 27.7389 4.78333 27.2167C4.26111 26.6944 4 26.0667 4 25.3333V6.66667C4 5.93333 4.26111 5.30556 4.78333 4.78333C5.30556 4.26111 5.93333 4 6.66667 4H16C16.3778 4 16.6944 4.12778 16.95 4.38333C17.2056 4.63889 17.3333 4.95556 17.3333 5.33333C17.3333 5.71111 17.2056 6.02778 16.95 6.28333C16.6944 6.53889 16.3778 6.66667 16 6.66667H6.66667V25.3333H25.3333V16C25.3333 15.6222 25.4611 15.3056 25.7167 15.05C25.9722 14.7944 26.2889 14.6667 26.6667 14.6667C27.0444 14.6667 27.3611 14.7944 27.6167 15.05C27.8722 15.3056 28 15.6222 28 16V25.3333C28 26.0667 27.7389 26.6944 27.2167 27.2167C26.6944 27.7389 26.0667 28 25.3333 28H6.66667ZM8 22.6667H24L19 16L15 21.3333L12 17.3333L8 22.6667ZM22.6667 9.33333H21.3333C20.9556 9.33333 20.6389 9.20556 20.3833 8.95C20.1278 8.69444 20 8.37778 20 8C20 7.62222 20.1278 7.30556 20.3833 7.05C20.6389 6.79444 20.9556 6.66667 21.3333 6.66667H22.6667V5.33333C22.6667 4.95556 22.7944 4.63889 23.05 4.38333C23.3056 4.12778 23.6222 4 24 4C24.3778 4 24.6944 4.12778 24.95 4.38333C25.2056 4.63889 25.3333 4.95556 25.3333 5.33333V6.66667H26.6667C27.0444 6.66667 27.3611 6.79444 27.6167 7.05C27.8722 7.30556 28 7.62222 28 8C28 8.37778 27.8722 8.69444 27.6167 8.95C27.3611 9.20556 27.0444 9.33333 26.6667 9.33333H25.3333V10.6667C25.3333 11.0444 25.2056 11.3611 24.95 11.6167C24.6944 11.8722 24.3778 12 24 12C23.6222 12 23.3056 11.8722 23.05 11.6167C22.7944 11.3611 22.6667 11.0444 22.6667 10.6667V9.33333Z" fill="white"/>
</g>
</svg>
