<svg width="25" height="24" viewBox="0 0 25 24" fill="none" xmlns="http://www.w3.org/2000/svg">
<mask id="mask0_472_3991" style="mask-type:alpha" maskUnits="userSpaceOnUse" x="0" y="0" width="25" height="24">
<rect x="0.5" width="24" height="24" fill="black"/>
</mask>
<g mask="url(#mask0_472_3991)">
<path d="M5.5 14V12H7.5V14H5.5ZM3.5 12V10H5.5V12H3.5ZM12.5 5V3H14.5V5H12.5ZM5 7.5H8V4.5H5V7.5ZM5 19.5H8V16.5H5V19.5ZM17 7.5H20V4.5H17V7.5ZM9.5 14V12H7.5V10H11.5V14H9.5ZM10.5 9V5H12.5V7H14.5V9H10.5ZM5.75 6.75V5.25H7.25V6.75H5.75ZM5.75 18.75V17.25H7.25V18.75H5.75ZM17.75 6.75V5.25H19.25V6.75H17.75ZM16.5 18H14.5C14.2167 18 13.9792 17.9042 13.7875 17.7125C13.5958 17.5208 13.5 17.2833 13.5 17C13.5 16.7167 13.5958 16.4792 13.7875 16.2875C13.9792 16.0958 14.2167 16 14.5 16H16.5V14C16.5 13.7167 16.5958 13.4792 16.7875 13.2875C16.9792 13.0958 17.2167 13 17.5 13C17.7833 13 18.0208 13.0958 18.2125 13.2875C18.4042 13.4792 18.5 13.7167 18.5 14V16H20.5C20.7833 16 21.0208 16.0958 21.2125 16.2875C21.4042 16.4792 21.5 16.7167 21.5 17C21.5 17.2833 21.4042 17.5208 21.2125 17.7125C21.0208 17.9042 20.7833 18 20.5 18H18.5V20C18.5 20.2833 18.4042 20.5208 18.2125 20.7125C18.0208 20.9042 17.7833 21 17.5 21C17.2167 21 16.9792 20.9042 16.7875 20.7125C16.5958 20.5208 16.5 20.2833 16.5 20V18ZM3.5 8V4C3.5 3.71667 3.59583 3.47917 3.7875 3.2875C3.97917 3.09583 4.21667 3 4.5 3H8.5C8.78333 3 9.02083 3.09583 9.2125 3.2875C9.40417 3.47917 9.5 3.71667 9.5 4V8C9.5 8.28333 9.40417 8.52083 9.2125 8.7125C9.02083 8.90417 8.78333 9 8.5 9H4.5C4.21667 9 3.97917 8.90417 3.7875 8.7125C3.59583 8.52083 3.5 8.28333 3.5 8ZM3.5 20V16C3.5 15.7167 3.59583 15.4792 3.7875 15.2875C3.97917 15.0958 4.21667 15 4.5 15H8.5C8.78333 15 9.02083 15.0958 9.2125 15.2875C9.40417 15.4792 9.5 15.7167 9.5 16V20C9.5 20.2833 9.40417 20.5208 9.2125 20.7125C9.02083 20.9042 8.78333 21 8.5 21H4.5C4.21667 21 3.97917 20.9042 3.7875 20.7125C3.59583 20.5208 3.5 20.2833 3.5 20ZM15.5 8V4C15.5 3.71667 15.5958 3.47917 15.7875 3.2875C15.9792 3.09583 16.2167 3 16.5 3H20.5C20.7833 3 21.0208 3.09583 21.2125 3.2875C21.4042 3.47917 21.5 3.71667 21.5 4V8C21.5 8.28333 21.4042 8.52083 21.2125 8.7125C21.0208 8.90417 20.7833 9 20.5 9H16.5C16.2167 9 15.9792 8.90417 15.7875 8.7125C15.5958 8.52083 15.5 8.28333 15.5 8Z" fill="black"/>
</g>
</svg>
