<svg width="25" height="24" viewBox="0 0 25 24" fill="none" xmlns="http://www.w3.org/2000/svg">
<mask id="mask0_472_3997" style="mask-type:alpha" maskUnits="userSpaceOnUse" x="0" y="0" width="25" height="24">
<rect x="0.5" width="24" height="24" fill="#D9D9D9"/>
</mask>
<g mask="url(#mask0_472_3997)">
<path d="M6.05003 10.5C5.85003 10.4167 5.66253 10.3292 5.48753 10.2375C5.31253 10.1458 5.13336 10.0333 4.95003 9.9L4.22503 10.125C4.00836 10.1917 3.79586 10.1833 3.58753 10.1C3.37919 10.0167 3.21669 9.88333 3.10003 9.7L2.90003 9.35C2.78336 9.15 2.74169 8.93333 2.77503 8.7C2.80836 8.46667 2.91669 8.275 3.10003 8.125L3.65003 7.65C3.61669 7.43333 3.60003 7.21667 3.60003 7C3.60003 6.78333 3.61669 6.56667 3.65003 6.35L3.10003 5.875C2.91669 5.725 2.80836 5.5375 2.77503 5.3125C2.74169 5.0875 2.78336 4.875 2.90003 4.675L3.12503 4.3C3.24169 4.11667 3.40003 3.98333 3.60003 3.9C3.80003 3.81667 4.00836 3.80833 4.22503 3.875L4.95003 4.1C5.13336 3.96667 5.31253 3.85417 5.48753 3.7625C5.66253 3.67083 5.85003 3.58333 6.05003 3.5L6.20003 2.775C6.25003 2.54167 6.36253 2.35417 6.53753 2.2125C6.71253 2.07083 6.91669 2 7.15003 2H7.55003C7.78336 2 7.98753 2.075 8.16253 2.225C8.33753 2.375 8.45003 2.56667 8.50003 2.8L8.65003 3.5C8.85003 3.58333 9.03753 3.67083 9.21253 3.7625C9.38753 3.85417 9.56669 3.96667 9.75003 4.1L10.475 3.875C10.6917 3.80833 10.9042 3.81667 11.1125 3.9C11.3209 3.98333 11.4834 4.11667 11.6 4.3L11.8 4.65C11.9167 4.85 11.9584 5.06667 11.925 5.3C11.8917 5.53333 11.7834 5.725 11.6 5.875L11.05 6.35C11.0834 6.56667 11.1 6.78333 11.1 7C11.1 7.21667 11.0834 7.43333 11.05 7.65L11.6 8.125C11.7834 8.275 11.8917 8.4625 11.925 8.6875C11.9584 8.9125 11.9167 9.125 11.8 9.325L11.575 9.7C11.4584 9.88333 11.3 10.0167 11.1 10.1C10.9 10.1833 10.6917 10.1917 10.475 10.125L9.75003 9.9C9.56669 10.0333 9.38753 10.1458 9.21253 10.2375C9.03753 10.3292 8.85003 10.4167 8.65003 10.5L8.50003 11.225C8.45003 11.4583 8.33753 11.6458 8.16253 11.7875C7.98753 11.9292 7.78336 12 7.55003 12H7.15003C6.91669 12 6.71253 11.925 6.53753 11.775C6.36253 11.625 6.25003 11.4333 6.20003 11.2L6.05003 10.5ZM7.35003 9C7.90003 9 8.37086 8.80417 8.76253 8.4125C9.15419 8.02083 9.35003 7.55 9.35003 7C9.35003 6.45 9.15419 5.97917 8.76253 5.5875C8.37086 5.19583 7.90003 5 7.35003 5C6.80003 5 6.32919 5.19583 5.93753 5.5875C5.54586 5.97917 5.35003 6.45 5.35003 7C5.35003 7.55 5.54586 8.02083 5.93753 8.4125C6.32919 8.80417 6.80003 9 7.35003 9ZM14.85 20.9C14.5667 20.8 14.3042 20.6792 14.0625 20.5375C13.8209 20.3958 13.5834 20.2333 13.35 20.05L12.4 20.35C12.1 20.45 11.8 20.4458 11.5 20.3375C11.2 20.2292 10.9667 20.0333 10.8 19.75L10.525 19.275C10.3584 18.9917 10.3 18.6875 10.35 18.3625C10.4 18.0375 10.55 17.7667 10.8 17.55L11.55 16.9C11.5167 16.6 11.5 16.3 11.5 16C11.5 15.7 11.5167 15.4 11.55 15.1L10.8 14.425C10.55 14.2083 10.4 13.9417 10.35 13.625C10.3 13.3083 10.3584 13.0083 10.525 12.725L10.8 12.25C10.9667 11.9667 11.2 11.7708 11.5 11.6625C11.8 11.5542 12.1 11.55 12.4 11.65L13.35 11.95C13.5834 11.7667 13.8209 11.6042 14.0625 11.4625C14.3042 11.3208 14.5667 11.2 14.85 11.1L15.075 10.075C15.1417 9.75833 15.2959 9.5 15.5375 9.3C15.7792 9.1 16.0667 9 16.4 9H17C17.3334 9 17.6209 9.1 17.8625 9.3C18.1042 9.5 18.2584 9.75833 18.325 10.075L18.55 11.1C18.8334 11.2 19.0959 11.3208 19.3375 11.4625C19.5792 11.6042 19.8167 11.7667 20.05 11.95L21 11.65C21.3 11.55 21.6 11.5542 21.9 11.6625C22.2 11.7708 22.4334 11.9667 22.6 12.25L22.875 12.725C23.0417 13.0083 23.1 13.3125 23.05 13.6375C23 13.9625 22.85 14.2333 22.6 14.45L21.85 15.1C21.8834 15.4 21.9 15.7 21.9 16C21.9 16.3 21.8834 16.6 21.85 16.9L22.6 17.575C22.85 17.7917 23 18.0583 23.05 18.375C23.1 18.6917 23.0417 18.9917 22.875 19.275L22.6 19.75C22.4334 20.0333 22.2 20.2292 21.9 20.3375C21.6 20.4458 21.3 20.45 21 20.35L20.05 20.05C19.8167 20.2333 19.5792 20.3958 19.3375 20.5375C19.0959 20.6792 18.8334 20.8 18.55 20.9L18.325 21.925C18.2584 22.2417 18.1042 22.5 17.8625 22.7C17.6209 22.9 17.3334 23 17 23H16.4C16.0667 23 15.7792 22.9 15.5375 22.7C15.2959 22.5 15.1417 22.2417 15.075 21.925L14.85 20.9ZM16.7 19C17.5334 19 18.2417 18.7083 18.825 18.125C19.4084 17.5417 19.7 16.8333 19.7 16C19.7 15.1667 19.4084 14.4583 18.825 13.875C18.2417 13.2917 17.5334 13 16.7 13C15.8667 13 15.1584 13.2917 14.575 13.875C13.9917 14.4583 13.7 15.1667 13.7 16C13.7 16.8333 13.9917 17.5417 14.575 18.125C15.1584 18.7083 15.8667 19 16.7 19Z" fill="black"/>
</g>
</svg>
