<svg width="20" height="20" viewBox="0 0 20 20" fill="none" xmlns="http://www.w3.org/2000/svg">
<mask id="mask0_472_4276" style="mask-type:alpha" maskUnits="userSpaceOnUse" x="0" y="0" width="20" height="20">
<rect width="20" height="20" fill="#D9D9D9"/>
</mask>
<g mask="url(#mask0_472_4276)">
<path d="M5.83333 12.5V7.5C5.83333 7.04167 5.99653 6.64931 6.32292 6.32292C6.64931 5.99653 7.04167 5.83333 7.5 5.83333H14.2917L12.1458 3.6875L13.3333 2.5L17.5 6.66667L13.3333 10.8333L12.1458 9.66667L14.2917 7.5H7.5V12.5H5.83333ZM4.16667 17.5C3.70833 17.5 3.31597 17.3368 2.98958 17.0104C2.66319 16.684 2.5 16.2917 2.5 15.8333V3.33333H4.16667V15.8333H14.1667V12.5H15.8333V15.8333C15.8333 16.2917 15.6701 16.684 15.3438 17.0104C15.0174 17.3368 14.625 17.5 14.1667 17.5H4.16667Z" fill="black"/>
</g>
</svg>
