<svg width="25" height="24" viewBox="0 0 25 24" fill="none" xmlns="http://www.w3.org/2000/svg">
<mask id="mask0_472_3455" style="mask-type:alpha" maskUnits="userSpaceOnUse" x="0" y="0" width="25" height="24">
<rect width="24" height="24" transform="matrix(-4.37114e-08 -1 -1 4.37114e-08 24.5 24)" fill="#D9D9D9"/>
</mask>
<g mask="url(#mask0_472_3455)">
<path d="M9.35 19L16.5 19C17.6 19 18.5417 18.6083 19.325 17.825C20.1083 17.0417 20.5 16.1 20.5 15C20.5 13.9 20.1083 12.9583 19.325 12.175C18.5417 11.3917 17.6 11 16.5 11L9.5 11C8.95 11 8.47917 10.8042 8.0875 10.4125C7.69583 10.0208 7.5 9.55001 7.5 9.00001C7.5 8.45001 7.69583 7.97918 8.0875 7.58751C8.47917 7.19585 8.95 7.00001 9.5 7.00001L16.65 7.00001L15.775 7.87501C15.575 8.07501 15.4792 8.31251 15.4875 8.58751C15.4958 8.86251 15.6 9.10001 15.8 9.30001C16 9.48335 16.2333 9.57918 16.5 9.58751C16.7667 9.59585 17 9.50001 17.2 9.30001L19.8 6.70001C19.9 6.60001 19.9708 6.49168 20.0125 6.37501C20.0542 6.25834 20.075 6.13334 20.075 6.00001C20.075 5.86668 20.0542 5.74168 20.0125 5.62501C19.9708 5.50834 19.9 5.40001 19.8 5.30001L17.2 2.70001C17 2.50001 16.7667 2.40418 16.5 2.41251C16.2333 2.42084 16 2.51668 15.8 2.70001C15.6 2.90001 15.4958 3.13751 15.4875 3.41251C15.4792 3.68751 15.575 3.92501 15.775 4.12501L16.65 5.00001L9.5 5.00001C8.4 5.00001 7.45833 5.39168 6.675 6.17501C5.89167 6.95835 5.5 7.90001 5.5 9.00001C5.5 10.1 5.89167 11.0417 6.675 11.825C7.45833 12.6083 8.4 13 9.5 13L16.5 13C17.05 13 17.5208 13.1958 17.9125 13.5875C18.3042 13.9792 18.5 14.45 18.5 15C18.5 15.55 18.3042 16.0208 17.9125 16.4125C17.5208 16.8042 17.05 17 16.5 17L9.35 17L10.225 16.125C10.425 15.925 10.5208 15.6875 10.5125 15.4125C10.5042 15.1375 10.4 14.9 10.2 14.7C10 14.5167 9.76667 14.4208 9.5 14.4125C9.23333 14.4042 9 14.5 8.8 14.7L6.2 17.3C6.1 17.4 6.02917 17.5083 5.9875 17.625C5.94583 17.7417 5.925 17.8667 5.925 18C5.925 18.1333 5.94583 18.2583 5.9875 18.375C6.02917 18.4917 6.1 18.6 6.2 18.7L8.8 21.3C9 21.5 9.23333 21.5958 9.5 21.5875C9.76667 21.5792 10 21.4833 10.2 21.3C10.4 21.1 10.5042 20.8625 10.5125 20.5875C10.5208 20.3125 10.425 20.075 10.225 19.875L9.35 19Z" fill="black"/>
</g>
</svg>
