<svg width="20" height="20" viewBox="0 0 20 20" fill="none" xmlns="http://www.w3.org/2000/svg">
<mask id="mask0_472_3894" style="mask-type:alpha" maskUnits="userSpaceOnUse" x="0" y="0" width="20" height="20">
<rect width="20" height="20" fill="#D9D9D9"/>
</mask>
<g mask="url(#mask0_472_3894)">
<path d="M3.33301 16.6663V14.9997H5.62467L5.29134 14.708C4.56912 14.0691 4.06217 13.34 3.77051 12.5205C3.47884 11.7011 3.33301 10.8747 3.33301 10.0413C3.33301 8.49967 3.79481 7.12815 4.71842 5.92676C5.64204 4.72537 6.8469 3.93023 8.33301 3.54134V5.29134C7.33301 5.65245 6.52745 6.26704 5.91634 7.13509C5.30523 8.00315 4.99967 8.9719 4.99967 10.0413C4.99967 10.6663 5.11773 11.274 5.35384 11.8643C5.58995 12.4545 5.95801 12.9997 6.45801 13.4997L6.66634 13.708V11.6663H8.33301V16.6663H3.33301ZM11.6663 16.458V14.708C12.6663 14.3469 13.4719 13.7323 14.083 12.8643C14.6941 11.9962 14.9997 11.0275 14.9997 9.95801C14.9997 9.33301 14.8816 8.72537 14.6455 8.13509C14.4094 7.54481 14.0413 6.99967 13.5413 6.49967L13.333 6.29134V8.33301H11.6663V3.33301H16.6663V4.99967H14.3747L14.708 5.29134C15.3886 5.9719 15.8851 6.71148 16.1976 7.51009C16.5101 8.3087 16.6663 9.12467 16.6663 9.95801C16.6663 11.4997 16.2045 12.8712 15.2809 14.0726C14.3573 15.274 13.1525 16.0691 11.6663 16.458Z" fill="black"/>
</g>
</svg>
