<svg width="600" height="480" viewBox="0 0 600 480" xmlns="http://www.w3.org/2000/svg" role="img" aria-labelledby="title desc">
  <title id="title">Purple Ostrich Illustration</title>
  <desc id="desc">A stylized purple ostrich on a transparent background.</desc>

  <!-- Gradients -->
  <defs>
    <linearGradient id="ostrich" x1="0" y1="0" x2="0" y2="1">
      <stop offset="0%" stop-color="#c9a7ff"/>
      <stop offset="100%" stop-color="#7f3df0"/>
    </linearGradient>
  </defs>

  <!-- Ostrich -->
  <g transform="translate(100,60)">
    <!-- Ground shadow -->
    <ellipse cx="245" cy="360" rx="140" ry="18" fill="rgba(0,0,0,0.15)"/>

    <!-- Tail feathers -->
    <path d="M160 180
             c -30 -20 -50 -25 -70 -10
             c  15 -30 45 -38 85 -25
             c -10 10 -12 22 -15 35 z"
          fill="url(#ostrich)" opacity=".85"/>

    <!-- Body -->
    <ellipse cx="220" cy="220" rx="90" ry="70" fill="url(#ostrich)"/>

    <!-- Wing -->
    <path d="M210 215
             c -25 5 -45 25 -40 45
             c  10 30 70 20 85 -10
             c  8 -16 -4 -34 -45 -25 z"
          fill="#e8d9ff" opacity=".9"/>

    <!-- Neck -->
    <path d="M270 210
             c 45 -60 30 -110 -10 -120
             c -25 -6 -40 10 -44 25
             c -6 24 6 48 38 75
             c 5 5 10 12 16 20 z"
          fill="url(#ostrich)"/>

    <!-- Head -->
    <circle cx="300" cy="88" r="22" fill="url(#ostrich)"/>
    <!-- Eye -->
    <circle cx="307" cy="86" r="3.8" fill="#1b0a2c"/>
    <circle cx="306" cy="85" r="1.6" fill="#fff"/>
    <!-- Beak -->
    <path d="M319 92
             l 28 6
             c 10 2 10 10 0 12
             l -28 6
             c -6 -6 -6 -18 0 -24 z"
          fill="#f6c36b"/>

    <!-- Legs -->
    <path d="M220 285 l -10 75" stroke="#b184ff" stroke-width="10" stroke-linecap="round"/>
    <path d="M255 285 l  18 78" stroke="#b184ff" stroke-width="10" stroke-linecap="round"/>
    <!-- Feet -->
    <path d="M205 360 l 20 0 8 10" stroke="#b184ff" stroke-width="8" stroke-linecap="round"/>
    <path d="M266 363 l 22 0 8 10" stroke="#b184ff" stroke-width="8" stroke-linecap="round"/>

    <!-- Sparkles -->
    <g opacity=".6">
      <path d="M120 120 l6 12 l12 6 l-12 6 l-6 12 l-6 -12 l-12 -6 l12 -6 z" fill="#fff" opacity=".5"/>
      <path d="M320 170 l4 8 l8 4 l-8 4 l-4 8 l-4 -8 l-8 -4 l8 -4 z" fill="#fff" opacity=".45"/>
    </g>
  </g>
</svg>
